<?xml version="1.0" encoding="UTF-8"?>
<svg version="1.1" xmlns="http://www.w3.org/2000/svg" width="248" height="228">
<path d="M0 0 C1.33642296 -0.01429802 1.33642296 -0.01429802 2.69984436 -0.02888489 C3.65410812 -0.02797348 4.60837189 -0.02706207 5.59155273 -0.02612305 C7.07062355 -0.03255074 7.07062355 -0.03255074 8.57957458 -0.03910828 C10.66160311 -0.04484565 12.74365168 -0.04535621 14.82568359 -0.04101562 C18.01686561 -0.03785001 21.20712557 -0.06134204 24.39819336 -0.08666992 C26.42097865 -0.08894234 28.44376643 -0.08964668 30.46655273 -0.08862305 C31.42284073 -0.09783279 32.37912872 -0.10704254 33.36439514 -0.11653137 C34.25219162 -0.11030258 35.1399881 -0.10407379 36.0546875 -0.09765625 C36.83538101 -0.09828568 37.61607452 -0.0989151 38.42042542 -0.0995636 C40.98681619 0.3707084 41.84897983 1.26834244 43.46264648 3.2746582 C44.99334196 6.53696711 44.16131183 8.9150477 43.00227356 12.22050476 C42.76361069 12.86614883 42.52494781 13.51179291 42.27905273 14.17700195 C41.91000069 15.21501701 41.91000069 15.21501701 41.53349304 16.27400208 C40.70728052 18.5903983 39.86606726 20.90106501 39.02514648 23.2121582 C38.43195768 24.86770097 37.83985995 26.52363503 37.2487793 28.17993164 C35.98394994 31.71921163 34.71318774 35.2562794 33.43774414 38.79174805 C30.50274654 46.93100411 27.60430576 55.08327017 24.70507812 63.23532104 C23.70026284 66.0594638 22.6937906 68.88301264 21.68725586 71.70654297 C17.08169736 84.63990714 12.56466258 97.6022572 8.08493042 110.5796814 C1.89767277 128.50289843 -4.39864493 146.38210717 -10.84985352 164.2121582 C-11.21070038 165.21083923 -11.57154724 166.20952026 -11.94332886 167.23846436 C-12.96842382 170.07299898 -13.99634344 172.90648874 -15.02563477 175.73950195 C-15.32283417 176.56027725 -15.62003357 177.38105255 -15.92623901 178.22669983 C-16.78452784 180.5807274 -17.65718776 182.92872754 -18.53735352 185.2746582 C-18.86875336 186.16871368 -19.2001532 187.06276917 -19.54159546 187.98391724 C-19.88203888 188.87464935 -20.2224823 189.76538147 -20.57324219 190.68310547 C-20.87872482 191.49038589 -21.18420746 192.29766632 -21.49894714 193.12940979 C-23.50665293 197.27713823 -26.64037591 199.30589799 -30.70776367 201.38305664 C-34.43881451 202.55870786 -38.00203459 202.56086274 -41.87329102 202.5402832 C-42.67086823 202.54219666 -43.46844543 202.54411011 -44.29019165 202.54608154 C-45.97284257 202.54743874 -47.65550413 202.54377489 -49.33813477 202.53540039 C-51.8969714 202.52472239 -54.45510149 202.53529671 -57.01391602 202.5480957 C-58.65454255 202.54677347 -60.29516865 202.54420977 -61.93579102 202.5402832 C-63.07206436 202.5463559 -63.07206436 202.5463559 -64.23129272 202.55255127 C-69.72287832 202.50473924 -75.46428746 202.34772426 -79.53735352 198.2746582 C-80.15753871 192.27042131 -78.56970441 187.68072211 -76.48657227 182.1730957 C-76.16118973 181.28470001 -75.83580719 180.39630432 -75.50056458 179.48098755 C-74.41870999 176.53340344 -73.32155904 173.59174537 -72.22485352 170.6496582 C-71.45400761 168.55574067 -70.68450357 166.46132871 -69.91625977 164.36645508 C-68.70616574 161.06711419 -67.49525724 157.76809754 -66.28036499 154.47052002 C-62.19230615 143.37097944 -58.20311181 132.23686097 -54.22457886 121.09768677 C-52.23601244 115.53171477 -50.24244666 109.96753601 -48.24829102 104.40356445 C-47.85578659 103.30840012 -47.46328217 102.21323578 -47.05888367 101.08488464 C-42.25316992 87.68348652 -37.41693855 74.29305341 -32.5559082 60.91162109 C-29.56627531 52.67783542 -26.58490129 44.44238905 -23.68392944 36.17686462 C-22.50105949 32.80707619 -21.30981743 29.44027235 -20.11834717 26.07351685 C-19.57286047 24.52345718 -19.03189504 22.9717975 -18.49591064 21.41842651 C-17.76577885 19.30255166 -17.02043216 17.19261292 -16.27172852 15.08325195 C-15.86148438 13.90561279 -15.45124023 12.72797363 -15.02856445 11.51464844 C-11.90812199 4.73478728 -7.81383767 0.0460677 0 0 Z " fill="#65CC27" transform="translate(90.537353515625,13.725341796875)"/>
<path d="M0 0 C0.8677002 -0.00953201 1.73540039 -0.01906403 2.62939453 -0.02888489 C3.55864746 -0.02797348 4.48790039 -0.02706207 5.4453125 -0.02612305 C6.40679199 -0.03040817 7.36827148 -0.0346933 8.35888672 -0.03910828 C10.38964043 -0.04484563 12.4204147 -0.04535622 14.45117188 -0.04101562 C17.55894956 -0.03785336 20.66577732 -0.06133039 23.7734375 -0.08666992 C25.74739463 -0.08894273 27.72135432 -0.0896465 29.6953125 -0.08862305 C30.62456543 -0.09783279 31.55381836 -0.10704254 32.51123047 -0.11653137 C36.03407974 -0.09124258 38.9204083 0.04177981 42.25 1.23486328 C44.16391782 4.19173891 43.68395665 6.36349712 43.13500977 9.76806641 C42.17898062 14.01171154 40.79121317 18.04057841 39.2890625 22.1184082 C38.95935959 23.03777161 38.62965668 23.95713501 38.28996277 24.90435791 C37.22595021 27.864538 36.14829856 30.81954165 35.0703125 33.7746582 C34.33608041 35.80981008 33.60276634 37.8452934 32.87036133 39.88110352 C31.09471032 44.81074174 29.30880672 49.73658137 27.519104 54.66113281 C25.79475388 59.41099917 24.08498477 64.16609029 22.375 68.92114258 C21.65990126 70.90766688 20.94265574 72.89342051 20.22265625 74.87817383 C18.73472218 78.98523774 17.26369756 83.09802668 15.83984375 87.2277832 C15.59468018 87.93580078 15.3495166 88.64381836 15.09692383 89.37329102 C14.43685439 91.42769371 14.43685439 91.42769371 14.5703125 94.2746582 C13.9103125 94.2746582 13.2503125 94.2746582 12.5703125 94.2746582 C12.42480957 94.86279297 12.27930664 95.45092773 12.12939453 96.05688477 C9.75158722 105.228182 6.59966768 114.09938294 3.4453125 123.0246582 C3.14739807 123.87050476 2.84948364 124.71635132 2.5425415 125.58782959 C0.58434521 131.1473599 -1.38419031 136.70316559 -3.35791016 142.25720215 C-4.4682294 145.38316813 -5.57596702 148.51004196 -6.68359375 151.63696289 C-8.58982927 157.01377075 -10.50661905 162.38672078 -12.43060303 167.75720215 C-13.17662608 169.84276131 -13.92001889 171.9292633 -14.66070557 174.01672363 C-15.70333252 176.95198289 -16.75653647 179.88323726 -17.8125 182.8137207 C-18.11929688 183.68390839 -18.42609375 184.55409607 -18.7421875 185.45065308 C-20.80993195 191.14125106 -22.85848872 196.31242755 -27.8046875 200.0871582 C-34.84797268 203.27340626 -42.91316643 202.46078679 -50.48706055 202.45996094 C-52.72529282 202.46214174 -54.96302692 202.48031485 -57.20117188 202.49926758 C-64.50731418 202.5278744 -71.36791586 202.38300068 -78.4296875 200.2746582 C-79.4296875 199.2746582 -79.4296875 199.2746582 -79.69384766 195.81787109 C-79.6191954 190.67307444 -78.01224694 186.3516119 -76.203125 181.58325195 C-75.69427261 180.19461441 -75.69427261 180.19461441 -75.17514038 178.77792358 C-74.063345 175.75154601 -72.93397239 172.73204797 -71.8046875 169.7121582 C-71.02367587 167.59442459 -70.24406986 165.47617209 -69.46582031 163.35742188 C-67.88354244 159.05226669 -66.29577482 154.74919962 -64.70410156 150.44750977 C-61.75956712 142.47462125 -58.89048844 134.47522178 -56.03158569 126.47131348 C-54.60915936 122.49045606 -53.18151869 118.51147064 -51.75390625 114.5324707 C-51.47652115 113.75911377 -51.19913605 112.98575684 -50.91334534 112.18896484 C-47.69160498 103.21070954 -44.44466921 94.24157099 -41.19976807 85.27166748 C-37.95707884 76.30529359 -34.73140381 67.33303918 -31.52734375 58.3527832 C-31.03068962 56.96081474 -31.03068962 56.96081474 -30.52400208 55.54072571 C-28.91987939 51.04341517 -27.3173917 46.54552911 -25.71704102 42.046875 C-24.54559041 38.75455541 -23.36754776 35.4647078 -22.18457031 32.17651367 C-20.96924625 28.79745051 -19.7807239 25.41018949 -18.60449219 22.01733398 C-18.00230546 20.31261964 -17.39977804 18.60802559 -16.796875 16.90356445 C-16.40014084 15.73494118 -16.40014084 15.73494118 -15.99539185 14.54270935 C-14.03929465 9.0751161 -11.70253773 4.26501183 -6.54782104 1.13021851 C-4.2078497 0.18505308 -2.51647737 0.01524159 0 0 Z " fill="#65CC27" transform="translate(186.4296875,13.725341796875)"/>
<path d="M0 0 C0.87092789 -0.00953201 1.74185577 -0.01906403 2.63917542 -0.02888489 C3.5715654 -0.02797348 4.50395538 -0.02706207 5.46459961 -0.02612305 C6.91037636 -0.03255074 6.91037636 -0.03255074 8.38536072 -0.03910828 C10.42031062 -0.04484511 12.45528102 -0.0453566 14.49023438 -0.04101562 C17.60899598 -0.03784986 20.72681423 -0.06134307 23.84545898 -0.08666992 C25.82267133 -0.08894234 27.79988623 -0.08964668 29.77709961 -0.08862305 C30.71151382 -0.09783279 31.64592804 -0.10704254 32.60865784 -0.11653137 C33.47643356 -0.11030258 34.34420929 -0.10407379 35.23828125 -0.09765625 C36.00120987 -0.09828568 36.76413849 -0.0989151 37.55018616 -0.0995636 C40.05539154 0.36819197 40.95000903 1.34875991 42.55444336 3.2746582 C40.11563038 3.2746582 37.67706532 3.26843069 35.23828125 3.25878906 C30.40853498 3.24082482 25.57879321 3.22924673 20.74902344 3.21972656 C18.66275531 3.2146853 16.57649073 3.20785243 14.49023438 3.19921875 C11.48168065 3.18709611 8.47317329 3.18141858 5.46459961 3.17700195 C4.53220963 3.17184067 3.59981964 3.16667938 2.63917542 3.16136169 C1.76824753 3.16128616 0.89731964 3.16121063 0 3.16113281 C-0.76372421 3.1589122 -1.52744843 3.15669159 -2.3143158 3.15440369 C-4.47456392 3.27629493 -6.3696115 3.6804931 -8.44555664 4.2746582 C-8.44555664 3.6146582 -8.44555664 2.9546582 -8.44555664 2.2746582 C-5.50263902 0.59513288 -3.37870766 0.02038305 0 0 Z " fill="#4AB20E" transform="translate(186.445556640625,13.725341796875)"/>
<path d="M0 0 C1.80581746 4.1802954 0.00048636 7.77837216 -1.45703125 11.79296875 C-1.72005539 12.53960281 -1.98307953 13.28623688 -2.2540741 14.05549622 C-2.8114513 15.62989402 -3.37410503 17.20243238 -3.94165039 18.77319336 C-4.81146412 21.18462816 -5.66176279 23.60230503 -6.50976562 26.02148438 C-7.05354262 27.54988698 -7.59842669 29.07789625 -8.14453125 30.60546875 C-8.39983109 31.33146774 -8.65513092 32.05746674 -8.91816711 32.8054657 C-10.76904131 37.88452065 -10.76904131 37.88452065 -13 39 C-11.08138271 26.11516818 -5.84550297 11.69100594 0 0 Z " fill="#57BA1C" transform="translate(106,96)"/>
<path d="M0 0 C0.66 0 1.32 0 2 0 C2 2.31 2 4.62 2 7 C3.26183105 7.01981934 4.52366211 7.03963867 5.82373047 7.06005859 C10.49418492 7.13598765 15.1643226 7.22472412 19.83447266 7.31738281 C21.85784666 7.35572521 23.88129006 7.39056871 25.90478516 7.421875 C28.80917203 7.46741169 31.71307894 7.52542409 34.6171875 7.5859375 C35.52556366 7.59748871 36.43393982 7.60903992 37.36984253 7.62094116 C38.63092331 7.6507457 38.63092331 7.6507457 39.91748047 7.68115234 C41.03000687 7.70113785 41.03000687 7.70113785 42.16500854 7.7215271 C44 8 44 8 46 10 C44.68 10.33 43.36 10.66 42 11 C42 10.34 42 9.68 42 9 C40.83428467 9.04600342 39.66856934 9.09200684 38.4675293 9.1394043 C34.14622513 9.30586118 29.82443237 9.45202655 25.50219727 9.59204102 C23.63090718 9.65550484 21.75979576 9.72448516 19.88891602 9.79907227 C17.20096177 9.90527889 14.51299103 9.9916863 11.82421875 10.07421875 C10.56782845 10.1302552 10.56782845 10.1302552 9.28605652 10.18742371 C3.45674421 10.33862882 3.45674421 10.33862882 1.26667786 8.71492004 C-0.75440603 5.97863059 -0.18577089 3.28195243 0 0 Z " fill="#60C61D" transform="translate(11,205)"/>
<path d="M0 0 C0.97199341 0.47542236 0.97199341 0.47542236 1.96362305 0.96044922 C5.82199535 2.28142287 9.54521052 2.46060235 13.58203125 2.6328125 C14.39621017 2.67437469 15.2103891 2.71593689 16.04924011 2.75875854 C18.63666745 2.88897697 21.22448254 3.00715514 23.8125 3.125 C25.57230487 3.21144428 27.33207129 3.29867519 29.09179688 3.38671875 C33.39413922 3.60025902 37.69686955 3.80300676 42 4 C42 4.33 42 4.66 42 5 C37.46510373 5.04986353 32.9303711 5.08593637 28.39526367 5.10986328 C26.85617285 5.11985006 25.31710065 5.13344419 23.77807617 5.15087891 C15.62298961 5.24087337 7.91023636 5.28577933 0 3 C0 2.01 0 1.02 0 0 Z " fill="#6FC03B" transform="translate(108,211)"/>
<path d="M0 0 C0.75 1.625 0.75 1.625 1 4 C-1.33463498 8.399889 -3.53956156 10.83607978 -8 13 C-11.04614258 13.34057617 -11.04614258 13.34057617 -14.39453125 13.29296875 C-15.59658203 13.28330078 -16.79863281 13.27363281 -18.03710938 13.26367188 C-19.28298828 13.23853516 -20.52886719 13.21339844 -21.8125 13.1875 C-23.71032227 13.16719727 -23.71032227 13.16719727 -25.64648438 13.14648438 C-28.76475643 13.11118318 -31.88216042 13.06186819 -35 13 C-35 12.67 -35 12.34 -35 12 C-34.30962646 11.98018066 -33.61925293 11.96036133 -32.90795898 11.93994141 C-29.75078529 11.84411707 -26.59422178 11.73467186 -23.4375 11.625 C-22.35146484 11.5940625 -21.26542969 11.563125 -20.14648438 11.53125 C-14.47370286 11.32434004 -9.31065136 11.1005919 -4 9 C-2.58333333 6.66666667 -2.58333333 6.66666667 -2 4 C-1.34786461 2.65949948 -0.68620031 1.32338632 0 0 Z " fill="#46A513" transform="translate(164,202)"/>
<path d="M0 0 C0.66 0 1.32 0 2 0 C1.59469801 5.9444292 -0.42247703 10.71310266 -2.84375 16.1328125 C-3.91056297 18.77822034 -4.54749378 21.19240457 -5 24 C-5.66 24 -6.32 24 -7 24 C-6.40531984 18.33171945 -4.90757199 13.39677846 -2.9375 8.0625 C-2.65583984 7.28326172 -2.37417969 6.50402344 -2.08398438 5.70117188 C-1.39532294 3.79859875 -0.69850097 1.89898275 0 0 Z " fill="#5CBB1D" transform="translate(37,133)"/>
<path d="M0 0 C2 1 2 1 2.77734375 2.609375 C3.105815 6.13611896 1.81973159 9.01993242 0.5625 12.25 C0.31951172 12.8996875 0.07652344 13.549375 -0.17382812 14.21875 C-0.77285994 15.81616817 -1.38514321 17.40860594 -2 19 C-2.66 19 -3.32 19 -4 19 C-2.125 11.25 -2.125 11.25 -1 9 C-0.77532169 7.46331135 -0.59203195 5.92031946 -0.4375 4.375 C-0.35371094 3.55773437 -0.26992187 2.74046875 -0.18359375 1.8984375 C-0.12300781 1.27195312 -0.06242188 0.64546875 0 0 Z " fill="#5ABA1B" transform="translate(132,16)"/>
<path d="M0 0 C1.49828872 3.88235819 0.43110582 6.43449288 -0.9375 10.25 C-1.31777344 11.32765625 -1.69804687 12.4053125 -2.08984375 13.515625 C-2.39019531 14.33546875 -2.69054687 15.1553125 -3 16 C-3.66 16 -4.32 16 -5 16 C-4.34309381 12.21760329 -3.279869 8.78158474 -1.9375 5.1875 C-1.57527344 4.21167969 -1.21304688 3.23585937 -0.83984375 2.23046875 C-0.42412109 1.12638672 -0.42412109 1.12638672 0 0 Z " fill="#55B51B" transform="translate(216,55)"/>
<path d="M0 0 C0.99 0 1.98 0 3 0 C1.78184562 4.68520915 0.30440013 8.70543612 -2 13 C-3.18771723 9.57056481 -2.80226223 7.62215325 -1.5625 4.25 C-1.27503906 3.45078125 -0.98757812 2.6515625 -0.69140625 1.828125 C-0.46324219 1.22484375 -0.23507813 0.6215625 0 0 Z " fill="#57BB1B" transform="translate(42,119)"/>
<path d="M0 0 C0.66 0 1.32 0 2 0 C1.50269348 4.97306516 0.44697666 8.63799813 -2 13 C-2.33 13 -2.66 13 -3 13 C-2.45144652 8.428721 -1.58255197 4.32564205 0 0 Z " fill="#53B617" transform="translate(136,125)"/>
<path d="M0 0 C0.66 0 1.32 0 2 0 C2 2.31 2 4.62 2 7 C3.32 7.33 4.64 7.66 6 8 C6 8.66 6 9.32 6 10 C3.13275314 9.42655063 2.1385485 9.1385485 0 7 C-0.125 3.375 -0.125 3.375 0 0 Z " fill="#59B720" transform="translate(11,205)"/>
<path d="M0 0 C0.66 0 1.32 0 2 0 C1.21824485 4.84688192 -0.39844278 9.3766367 -2 14 C-2.33 14 -2.66 14 -3 14 C-2.48594831 9.03083364 -1.76615118 4.70973649 0 0 Z " fill="#55B81A" transform="translate(152,80)"/>
<path d="M0 0 C0.66 0 1.32 0 2 0 C1.71872579 1.48117801 1.42466268 2.95993249 1.125 4.4375 C0.96257812 5.26121094 0.80015625 6.08492188 0.6328125 6.93359375 C0.31957031 7.95646484 0.31957031 7.95646484 0 9 C-0.99 9.495 -0.99 9.495 -2 10 C-1.54177532 6.53058454 -1.10868317 3.32604951 0 0 Z " fill="#58B61A" transform="translate(141,111)"/>
<path d="M0 0 C0.66 0 1.32 0 2 0 C1.38461538 6.52307692 1.38461538 6.52307692 -0.5625 8.9375 C-1.036875 9.288125 -1.51125 9.63875 -2 10 C-1.54177532 6.53058454 -1.10868317 3.32604951 0 0 Z " fill="#55B81C" transform="translate(69,44)"/>
<path d="M0 0 C0.66 0 1.32 0 2 0 C1.47731534 2.76276177 0.89130413 5.3260876 0 8 C-0.66 8 -1.32 8 -2 8 C-1.125 2.25 -1.125 2.25 0 0 Z " fill="#5AB821" transform="translate(227,23)"/>
<path d="" fill="#00FF00" transform="translate(0,0)"/>
<path d="M0 0 C2 1 2 1 2 1 Z " fill="#00FF00" transform="translate(214,12)"/>
<path d="M0 0 C2 1 2 1 2 1 Z " fill="#80FF80" transform="translate(102,12)"/>
<path d="M0 0 C2 1 2 1 2 1 Z " fill="#7FFF00" transform="translate(94,12)"/>
<path d="" fill="#80FF80" transform="translate(0,0)"/>
<path d="" fill="#80FF80" transform="translate(0,0)"/>
<path d="" fill="#00FF00" transform="translate(0,0)"/>
<path d="" fill="#00FF00" transform="translate(0,0)"/>
<path d="" fill="#00FF00" transform="translate(0,0)"/>
<path d="" fill="#00FF00" transform="translate(0,0)"/>
<path d="" fill="#00FF00" transform="translate(0,0)"/>
<path d="" fill="#00FF00" transform="translate(0,0)"/>
<path d="" fill="#80FF80" transform="translate(0,0)"/>
<path d="" fill="#00FF00" transform="translate(0,0)"/>
<path d="" fill="#00FF00" transform="translate(0,0)"/>
<path d="" fill="#00FF00" transform="translate(0,0)"/>
<path d="" fill="#00FF00" transform="translate(0,0)"/>
<path d="" fill="#80FF80" transform="translate(0,0)"/>
<path d="" fill="#FFFF00" transform="translate(0,0)"/>
<path d="" fill="#80FF80" transform="translate(0,0)"/>
<path d="" fill="#80FF80" transform="translate(0,0)"/>
<path d="" fill="#55AA55" transform="translate(0,0)"/>
<path d="" fill="#80FF80" transform="translate(0,0)"/>
<path d="" fill="#80FF80" transform="translate(0,0)"/>
<path d="" fill="#00FF00" transform="translate(0,0)"/>
<path d="" fill="#00FF00" transform="translate(0,0)"/>
<path d="" fill="#80FF80" transform="translate(0,0)"/>
<path d="" fill="#00FF00" transform="translate(0,0)"/>
<path d="" fill="#00FF00" transform="translate(0,0)"/>
<path d="" fill="#80FF80" transform="translate(0,0)"/>
<path d="" fill="#80FF80" transform="translate(0,0)"/>
<path d="" fill="#80FF80" transform="translate(0,0)"/>
<path d="" fill="#00FF00" transform="translate(0,0)"/>
<path d="" fill="#00FF00" transform="translate(0,0)"/>
<path d="" fill="#00FF00" transform="translate(0,0)"/>
<path d="" fill="#00FF00" transform="translate(0,0)"/>
<path d="" fill="#80FF80" transform="translate(0,0)"/>
<path d="" fill="#00FF00" transform="translate(0,0)"/>
<path d="" fill="#00FF00" transform="translate(0,0)"/>
<path d="" fill="#80FF80" transform="translate(0,0)"/>
<path d="" fill="#00FF00" transform="translate(0,0)"/>
<path d="" fill="#FFFF00" transform="translate(0,0)"/>
<path d="" fill="#00FF00" transform="translate(0,0)"/>
<path d="" fill="#80FF80" transform="translate(0,0)"/>
<path d="" fill="#FFFF00" transform="translate(0,0)"/>
<path d="" fill="#FFFF00" transform="translate(0,0)"/>
<path d="" fill="#FFFF00" transform="translate(0,0)"/>
<path d="" fill="#80BF40" transform="translate(0,0)"/>
</svg>
